<?xml version="1.0" standalone="no"?>
<!DOCTYPE svg PUBLIC "-//W3C//DTD SVG 20010904//EN"
 "http://www.w3.org/TR/2001/REC-SVG-20010904/DTD/svg10.dtd">
<svg version="1.0" xmlns="http://www.w3.org/2000/svg"
 width="498.000000pt" height="498.000000pt" viewBox="0 0 498.000000 498.000000"
 preserveAspectRatio="xMidYMid meet">
<metadata>
Created by potrace 1.11, written by Peter Selinger 2001-2013
</metadata>
<g transform="translate(0.000000,498.000000) scale(0.100000,-0.100000)"
fill="#000000" stroke="none">
<path d="M0 2761 l0 -1549 85 -13 c47 -7 88 -16 90 -19 3 -4 -29 -25 -70 -46
-56 -28 -77 -44 -82 -63 -14 -57 81 -85 436 -127 127 -15 366 -16 466 -2 17 3
20 -3 23 -37 5 -79 7 -82 79 -104 38 -11 83 -24 101 -27 40 -8 48 -24 34 -70
l-10 -34 213 0 c212 0 214 0 217 22 3 25 -13 23 348 29 l205 3 -2 -27 -2 -27
191 0 191 0 -6 34 -5 34 108 7 c59 4 113 11 119 14 6 4 14 35 17 70 l7 62 51
-6 c98 -13 241 -56 321 -96 l80 -40 110 7 c61 4 117 8 125 10 8 1 26 3 40 3
18 1 33 13 54 47 24 37 33 44 50 39 148 -48 350 -86 556 -106 105 -10 531 -6
735 6 17 1 47 3 68 3 l37 2 0 1775 0 1775 -2490 0 -2490 0 0 -1549z m1107 785
c53 -12 72 -12 135 0 107 21 156 18 210 -11 54 -29 104 -31 193 -10 87 21 119
19 180 -14 32 -17 65 -28 78 -25 12 2 59 9 105 15 79 10 86 10 156 -16 72 -26
122 -28 151 -5 6 5 35 15 65 24 50 15 60 15 110 0 87 -24 160 -28 202 -11 21
9 57 19 81 22 65 10 81 -10 74 -89 -3 -34 -13 -81 -21 -105 -20 -56 -20 -104
1 -159 9 -25 12 -46 7 -51 -5 -4 -54 -4 -109 0 -55 4 -196 7 -314 8 -212 1
-215 1 -257 -24 l-43 -25 -53 20 c-228 88 -650 102 -1008 33 -104 -20 -129
-36 -130 -83 -1 -34 -1 -33 -19 18 -30 86 -79 106 -125 51 -14 -17 -29 -42
-32 -56 -10 -38 1 -156 17 -181 13 -20 10 -25 -37 -74 -28 -29 -81 -88 -119
-131 l-69 -79 -21 45 c-12 24 -36 62 -53 83 -58 74 -56 82 51 186 98 97 101
102 142 243 18 61 47 97 127 157 28 21 41 42 58 95 13 37 29 75 36 84 8 8 14
21 14 28 0 6 12 23 28 37 24 23 33 25 77 20 28 -3 78 -12 112 -20z m686 -543
l28 -8 -33 -34 c-18 -18 -60 -52 -93 -74 -72 -49 -240 -127 -275 -127 -16 0
-21 -3 -12 -8 6 -5 19 -33 27 -63 8 -30 17 -64 21 -76 6 -21 3 -23 -27 -23
-26 0 -30 -3 -19 -10 8 -5 26 -10 38 -10 16 0 39 -17 69 -50 53 -59 110 -80
215 -80 41 0 67 -4 63 -9 -3 -6 -40 -17 -82 -27 -130 -29 -306 -2 -363 54 -53
54 -123 288 -124 417 -1 89 15 130 56 139 36 8 480 -2 511 -11z m95 -14 c39
-13 61 -59 68 -141 6 -66 -9 -205 -23 -219 -16 -16 -107 -27 -274 -35 l-167
-7 -19 54 c-41 109 -44 101 60 143 104 42 245 132 285 182 31 38 28 38 70 23z
m861 -30 c45 -16 61 -58 61 -161 0 -91 -27 -207 -63 -270 l-21 -38 -27 26
c-15 14 -42 29 -61 33 -39 8 -50 38 -22 58 17 13 18 15 2 24 -9 5 -15 17 -13
26 16 79 15 83 -8 83 -52 0 -150 61 -229 141 -46 46 -76 84 -72 91 9 15 406 4
453 -13z m-1714 -46 c12 -99 65 -294 108 -397 46 -108 95 -172 160 -210 100
-58 384 -61 553 -6 40 13 104 81 142 150 36 64 68 185 77 288 7 84 13 104 29
99 6 -2 16 -54 24 -120 11 -102 40 -228 67 -291 7 -17 5 -18 -19 -14 -19 4
-24 2 -17 -5 5 -5 38 -10 72 -10 55 0 74 6 183 61 152 76 193 88 240 68 54
-22 61 -82 17 -137 -65 -84 -300 -133 -440 -93 -17 5 -22 4 -17 -4 4 -6 33
-14 64 -18 51 -5 69 -14 148 -73 109 -80 194 -153 189 -161 -2 -3 -57 2 -122
13 -248 38 -683 30 -928 -17 -52 -10 -72 -11 -77 -2 -5 7 -20 -2 -45 -26 -20
-21 -33 -41 -29 -45 4 -4 13 0 20 9 17 23 150 54 286 67 57 5 106 8 108 6 3
-2 0 -21 -5 -42 -15 -60 -11 -63 85 -63 122 0 132 4 121 43 -21 74 -19 77 76
77 l85 0 0 -42 c0 -24 4 -49 9 -56 5 -8 40 -15 94 -19 97 -6 95 -8 76 60 -6
22 -9 41 -6 43 4 5 222 -23 249 -32 11 -3 20 1 24 11 9 22 -31 63 -151 153
-55 41 -101 78 -103 82 -1 4 24 10 57 13 32 4 84 16 114 27 30 11 81 25 114
30 32 5 84 23 116 39 69 33 77 27 58 -48 -34 -138 -40 -179 -31 -210 9 -34 9
-34 -40 -45 -14 -3 -56 -31 -94 -63 -58 -49 -88 -72 -104 -79 -11 -6 -116
-501 -128 -607 -4 -32 -10 -60 -14 -62 -4 -2 -30 -1 -58 4 -29 4 -52 4 -52 0
0 -4 15 -10 33 -13 34 -6 103 -17 412 -66 269 -43 379 -59 384 -54 2 2 -4 19
-13 38 -14 30 -14 38 -1 76 22 62 19 85 -21 144 -43 65 -43 99 -1 104 52 6
103 -49 114 -122 14 -104 39 -126 150 -133 147 -9 257 30 343 122 20 21 22 28
11 35 -12 7 -12 18 0 77 14 62 18 70 51 88 30 16 39 17 52 6 23 -19 10 -31
-24 -24 -27 5 -31 2 -45 -30 -8 -20 -14 -52 -13 -71 l3 -35 34 26 c19 15 46
26 63 25 23 -1 28 3 24 16 -3 9 -1 33 3 52 9 35 9 35 10 -12 1 -42 4 -48 22
-48 12 0 19 -5 16 -12 -2 -7 -12 -12 -21 -12 -12 1 -16 -7 -16 -33 0 -38 -12
-67 -43 -101 -17 -18 -19 -25 -9 -31 18 -11 6 -54 -25 -87 -13 -14 -23 -27
-21 -28 2 -1 15 -7 31 -14 72 -31 -8 -114 -152 -158 -113 -34 -345 -24 -432
20 -18 9 -42 16 -55 16 -12 0 -49 7 -81 15 -32 8 -130 26 -218 39 -88 14 -214
34 -280 45 -158 27 -173 27 -177 -1 -3 -21 -10 -24 -82 -31 -44 -4 -85 -6 -92
-3 -6 2 -15 25 -18 50 -8 51 -8 51 -57 60 -34 6 -36 5 -32 -18 3 -13 0 -41 -7
-60 l-12 -36 -361 0 c-324 0 -554 11 -754 36 -43 5 -43 6 -43 46 0 31 -6 45
-25 60 -24 19 -25 23 -23 131 2 62 -1 122 -5 135 -6 15 -5 22 4 22 21 0 38 34
39 76 0 83 -48 75 -60 -9 l-6 -42 -18 34 c-13 25 -18 54 -17 110 1 93 -10 129
-65 207 -54 75 -62 96 -65 170 -2 51 0 59 15 56 30 -5 46 18 46 64 0 35 -5 47
-25 60 -32 21 -52 7 -61 -42 l-6 -34 -30 42 c-37 50 -64 110 -73 161 -6 31 -3
44 21 80 30 44 173 233 262 345 29 37 71 93 95 124 23 32 45 58 48 58 4 0 10
-26 14 -57z m1344 -75 c29 -26 87 -64 129 -85 l77 -38 -3 -40 c-2 -22 -7 -43
-11 -48 -9 -9 -261 -18 -290 -10 -26 7 -35 62 -35 210 1 141 13 164 53 101 15
-24 51 -64 80 -90z m1848 -159 c121 -41 190 -132 165 -217 -11 -37 -52 -87
-52 -64 0 6 5 14 10 17 6 3 10 16 10 27 0 21 0 21 -25 -2 -17 -16 -23 -30 -19
-45 3 -12 -1 -27 -9 -34 -21 -17 -87 -17 -98 0 -10 15 -7 89 6 124 7 20 6 20
-9 1 -9 -11 -18 -36 -22 -55 -9 -56 -12 -61 -37 -61 -36 0 -77 36 -77 68 l-1
27 -17 -30 c-25 -46 -62 -164 -62 -199 0 -17 -8 -42 -17 -56 l-17 -24 38 23
38 24 -12 -23 c-11 -20 -10 -22 5 -16 13 5 16 2 11 -10 -3 -8 -6 -20 -6 -25 0
-5 -17 -17 -37 -27 -21 -10 -84 -44 -140 -76 -56 -32 -109 -59 -118 -60 -8 -1
-24 -12 -35 -24 -12 -12 -24 -22 -27 -22 -4 0 6 13 22 30 15 16 31 27 35 25 7
-4 107 78 155 128 21 22 -50 -29 -100 -72 -16 -14 17 24 75 84 58 60 93 99 79
87 -42 -36 -59 -25 -59 41 0 30 38 187 56 231 6 16 4 18 -12 12 -67 -27 -74
-28 -100 -11 -14 9 -27 22 -30 29 -6 15 67 176 80 176 4 0 5 -10 1 -22 -22
-73 -23 -72 31 -65 27 4 58 8 69 9 11 2 29 17 40 34 39 60 45 64 99 64 29 0
80 -9 113 -21z m-412 -71 c-17 -37 -34 -58 -57 -70 -38 -20 -58 -22 -58 -8 0
6 -11 3 -25 -6 -17 -11 -34 -14 -56 -9 -27 6 -30 10 -26 34 15 72 20 76 83 74
33 -1 61 -2 62 -2 2 -1 -5 -17 -17 -36 -11 -19 -16 -35 -11 -35 5 0 16 18 26
39 12 28 27 44 53 54 52 22 52 22 26 -35z m-220 -14 c-8 -20 -15 -38 -15 -40
0 -14 -20 0 -25 17 -7 22 18 59 42 59 11 0 11 -6 -2 -36z m-1665 -4 c0 -6 -7
-25 -16 -42 -15 -28 -18 -30 -56 -24 -42 7 -98 34 -98 48 0 14 37 9 50 -7 19
-23 59 -18 83 10 23 26 37 32 37 15z m650 6 c0 -19 -22 -56 -34 -56 -8 0 -51
-19 -96 -42 -72 -37 -85 -40 -118 -32 -49 12 -53 36 -7 53 19 7 43 25 53 39 9
15 21 30 27 34 11 8 175 11 175 4z m-220 -26 c-10 -19 -47 -40 -71 -40 -19 0
-8 21 16 30 14 5 25 14 25 20 0 5 9 10 20 10 18 0 19 -3 10 -20z m-603 -20
c20 -22 44 -35 83 -44 l55 -13 -37 -17 c-49 -21 -172 -21 -235 0 -44 14 -113
67 -113 85 0 5 28 9 62 11 33 2 83 4 109 6 43 3 51 0 76 -28z m2513 -228 c0
-5 -15 -40 -34 -79 -31 -63 -38 -71 -68 -76 -18 -2 -34 -4 -36 -2 -1 1 17 39
40 83 38 72 46 82 71 82 15 0 27 -4 27 -8z m-571 -161 c-10 -41 -29 -88 -42
-105 -36 -47 -49 -75 -68 -146 -17 -62 -18 -63 -18 -25 -1 23 8 57 18 78 10
20 22 49 26 64 7 32 95 216 100 211 2 -2 -6 -36 -16 -77z m-134 2 c-5 -33 -14
-216 -15 -292 0 -30 -3 -51 -7 -48 -3 4 -16 44 -29 89 -12 46 -23 76 -23 68
-1 -16 11 -70 23 -107 14 -43 -13 -24 -39 27 -26 52 -31 85 -15 110 9 13 11
13 20 0 7 -11 10 -5 10 24 0 24 12 60 32 97 35 64 50 75 43 32z m224 -59 c-24
-44 -59 -97 -78 -120 -20 -22 -51 -58 -70 -80 -56 -64 -52 -4 5 94 33 55 43
48 13 -10 -28 -56 -23 -50 46 52 55 82 115 153 122 146 2 -2 -15 -39 -38 -82z
m489 15 c2 -5 14 -9 27 -9 45 0 35 -18 -18 -30 -132 -32 -336 -125 -477 -219
-81 -53 -88 -56 -148 -56 -80 0 -79 11 9 85 88 73 255 172 369 219 88 36 93
37 163 28 40 -5 74 -13 75 -18z m122 -46 c0 -5 -5 -15 -10 -23 -8 -12 -10 -11
-10 8 0 12 5 22 10 22 6 0 10 -3 10 -7z m-35 -13 c-3 -5 -14 -10 -23 -9 -14 0
-13 2 3 9 27 11 27 11 20 0z m-2361 -22 c3 -13 6 -35 6 -50 0 -27 -1 -28 -62
-30 -63 -1 -111 1 -115 6 -5 4 19 70 30 84 6 7 34 12 72 12 57 0 63 -2 69 -22z
m334 5 c6 -10 13 -33 17 -51 l7 -33 -74 3 -73 3 -3 48 -3 47 60 0 c47 0 62 -4
69 -17z m772 -29 c52 -14 136 -46 187 -70 51 -24 96 -44 101 -44 5 0 17 -9 27
-20 10 -11 23 -20 29 -20 17 -1 68 -49 62 -59 -3 -5 -31 -12 -61 -16 -46 -5
-60 -3 -82 13 -45 31 -144 78 -213 101 -90 30 -289 62 -347 57 -160 -16 -173
-17 -173 -6 0 5 5 10 10 10 6 0 18 8 29 18 10 9 34 30 52 45 l34 28 125 -5
c91 -4 150 -12 220 -32z m1120 12 c0 -2 -7 -7 -16 -10 -8 -3 -12 -2 -9 4 6 10
25 14 25 6z m-40 -10 c0 -2 -7 -7 -16 -10 -8 -3 -12 -2 -9 4 6 10 25 14 25 6z
m55 -43 c-3 -10 -15 -46 -27 -80 -11 -35 -24 -63 -29 -63 -6 0 -5 9 1 21 7 11
9 26 7 34 -3 7 -2 16 3 21 4 5 13 26 20 47 6 20 16 37 22 37 6 0 7 -8 3 -17z
m-155 -2 c-8 -5 -26 -12 -40 -15 l-25 -7 25 15 c14 9 32 15 40 15 13 0 13 -1
0 -8z m-630 -73 c0 -10 -11 -10 -29 1 -9 6 -11 16 -7 27 7 18 8 18 22 0 8 -11
14 -23 14 -28z m580 30 c0 -11 -12 -10 -30 2 -12 7 -10 9 8 7 12 0 22 -5 22
-9z m-1285 -13 c-25 -9 -104 -12 -99 -4 3 5 29 9 57 8 29 0 48 -2 42 -4z m88
-2 c-13 -2 -33 -2 -45 0 -13 2 -3 4 22 4 25 0 35 -2 23 -4z m117 -2 c0 -8 -79
-3 -89 5 -2 2 17 4 42 4 26 0 47 -4 47 -9z m166 -33 c4 -5 -7 -8 -24 -8 -17 0
-34 5 -37 10 -3 6 -19 10 -35 10 -33 0 -60 9 -60 20 0 9 145 -21 156 -32z
m970 25 c-15 -53 -17 -73 -7 -73 19 0 12 -29 -10 -40 -28 -15 -30 -11 -19 35
5 22 11 52 15 68 3 15 10 27 16 27 6 0 8 -8 5 -17z m-1486 -3 c0 -5 -5 -10
-11 -10 -5 0 -7 5 -4 10 3 6 8 10 11 10 2 0 4 -4 4 -10z m1700 1 c0 -6 -4 -13
-10 -16 -5 -3 -10 1 -10 9 0 9 5 16 10 16 6 0 10 -4 10 -9z m30 -1 c0 -5 -4
-10 -10 -10 -5 0 -10 5 -10 10 0 6 5 10 10 10 6 0 10 -4 10 -10z m-320 -16 c0
-3 -10 -15 -22 -26 -16 -13 -19 -21 -10 -24 9 -4 7 -12 -8 -31 -24 -31 -27
-58 -5 -49 8 3 15 1 15 -4 0 -11 -39 -34 -46 -27 -8 8 28 138 43 153 15 14 33
19 33 8z m-102 -20 c-2 -1 -17 -5 -33 -8 -27 -5 -28 -4 -12 9 15 11 56 11 45
-1z m-998 -4 c0 -5 -4 -10 -10 -10 -5 0 -10 5 -10 10 0 6 5 10 10 10 6 0 10
-4 10 -10z m294 -10 c49 -21 53 -25 34 -36 -7 -4 -8 -3 -4 4 5 8 0 12 -13 12
-11 0 -23 5 -26 10 -4 6 -9 8 -13 6 -4 -2 -16 2 -27 10 -27 20 -5 17 49 -6z
m628 -7 c-6 -3 -9 -10 -6 -15 4 -7 2 -8 -5 -4 -9 6 -9 11 0 22 6 8 15 12 18 8
3 -4 0 -9 -7 -11z m-847 -13 c36 -8 33 -9 -24 -5 -35 3 -89 5 -120 5 -33 0
-51 4 -43 8 16 11 133 5 187 -8z m-205 -2 c0 -6 -3 -9 -6 -5 -3 3 -17 2 -30
-3 -30 -12 -32 -2 -1 10 30 12 37 12 37 -2z m1010 -18 c-6 -11 -13 -20 -16
-20 -2 0 0 9 6 20 6 11 13 20 16 20 2 0 0 -9 -6 -20z m96 -7 c-10 -10 -19 5
-10 18 6 11 8 11 12 0 2 -7 1 -15 -2 -18z m-746 -9 c25 -14 25 -15 -10 -8 -19
3 -39 10 -45 14 -5 4 -19 10 -30 14 -11 3 -2 3 20 0 22 -3 51 -12 65 -20z
m-187 1 c114 -17 177 -34 236 -65 36 -18 42 -25 37 -43 -3 -12 -15 -60 -27
-107 -25 -97 -25 -98 -41 -82 -17 17 -68 15 -89 -4 -17 -15 -25 -15 -103 5
-47 11 -128 26 -180 33 -59 7 -96 17 -96 24 0 13 60 227 66 233 4 4 64 19 84
20 8 0 59 -6 113 -14z m-396 -37 c-3 -7 -5 -2 -5 12 0 14 2 19 5 13 2 -7 2
-19 0 -25z m1263 24 c0 -4 -9 -15 -20 -25 -22 -19 -29 0 -8 21 14 14 28 16 28
4z m-600 -23 c0 -13 -13 -11 -35 5 -18 13 -18 14 8 9 15 -3 27 -9 27 -14z
m135 11 c3 -5 1 -10 -4 -10 -6 0 -11 5 -11 10 0 6 2 10 4 10 3 0 8 -4 11 -10z
m-728 -32 c-3 -8 -6 -5 -6 6 -1 11 2 17 5 13 3 -3 4 -12 1 -19z m1498 2 c3 -5
2 -10 -4 -10 -5 0 -13 5 -16 10 -3 6 -2 10 4 10 5 0 13 -4 16 -10z m-264 -47
c-9 -16 -10 -15 -11 8 0 14 3 29 8 33 12 12 14 -22 3 -41z m319 37 c0 -5 -10
-10 -22 -10 -19 0 -20 2 -8 10 19 13 30 13 30 0z m-385 -27 c-21 -15 -30 -10
-22 11 4 10 13 13 23 9 15 -6 15 -7 -1 -20z m108 7 c-3 -12 -8 -19 -11 -16 -5
6 5 36 12 36 2 0 2 -9 -1 -20z m-275 -27 c-2 -14 -9 -28 -16 -31 -9 -3 -12 3
-10 14 4 24 -39 33 -48 10 -8 -20 -24 -21 -24 -1 0 9 -9 15 -25 15 -14 0 -25
5 -25 10 0 6 32 10 76 10 l75 0 -3 -27z m-1091 -5 c-3 -8 -6 -5 -6 6 -1 11 2
17 5 13 3 -3 4 -12 1 -19z m1563 18 c0 -2 -9 -6 -20 -9 -11 -3 -20 -1 -20 4 0
5 9 9 20 9 11 0 20 -2 20 -4z m75 -6 c3 -5 1 -10 -4 -10 -6 0 -11 5 -11 10 0
6 2 10 4 10 3 0 8 -4 11 -10z m-1595 -10 c0 -5 -5 -10 -11 -10 -5 0 -7 5 -4
10 3 6 8 10 11 10 2 0 4 -4 4 -10z m1143 -10 c-3 -12 -8 -19 -11 -16 -5 6 5
36 12 36 2 0 2 -9 -1 -20z m367 -27 c0 -12 -8 -18 -25 -18 -28 0 -31 5 -13 23
18 18 38 15 38 -5z m-230 3 c0 -3 -4 -8 -10 -11 -5 -3 -10 -1 -10 4 0 6 5 11
10 11 6 0 10 -2 10 -4z m275 -13 c-16 -39 -17 -53 -4 -53 10 0 10 -3 1 -12 -6
-6 -14 -9 -18 -6 -9 10 6 88 18 88 6 0 7 -8 3 -17z m-1613 -53 c-6 -45 -18
-45 -14 1 2 21 7 37 11 34 4 -2 6 -18 3 -35z m1469 7 c-8 -8 -11 -7 -11 4 0
20 13 34 18 19 3 -7 -1 -17 -7 -23z m-156 13 c3 -5 -1 -10 -10 -10 -9 0 -13 5
-10 10 3 6 8 10 10 10 2 0 7 -4 10 -10z m205 -12 c-3 -39 -1 -42 21 -22 21 19
21 19 8 -8 -13 -29 -35 -43 -44 -28 -6 10 4 80 12 80 2 0 4 -10 3 -22z m-1442
-2 c-10 -7 -14 -17 -10 -22 4 -4 -1 -2 -10 5 -19 14 -25 26 -9 16 5 -3 12 -1
16 5 3 5 12 10 18 10 7 0 4 -6 -5 -14z m920 2 c-5 -15 -78 -24 -78 -10 0 16
13 22 48 22 22 0 32 -4 30 -12z m86 -9 c-3 -5 -10 -7 -15 -3 -5 3 -7 10 -3 15
3 5 10 7 15 3 5 -3 7 -10 3 -15z m166 12 c0 -5 -7 -12 -16 -15 -24 -9 -28 -7
-14 9 14 17 30 20 30 6z m-1145 -63 c5 4 5 1 1 -6 -6 -10 -11 -10 -22 -1 -8 6
-14 14 -14 16 0 3 6 0 13 -6 8 -6 18 -7 22 -3z m1359 -10 c-8 -27 -12 -33 -19
-27 -7 8 7 49 17 49 5 0 6 -10 2 -22z m-1390 -19 c11 -18 14 -29 8 -25 -6 3
-12 3 -15 -1 -2 -5 -2 -2 0 6 2 8 -4 22 -13 32 -10 11 -13 19 -8 19 5 0 18
-14 28 -31z m1006 5 c0 -8 -4 -14 -10 -14 -5 0 -10 4 -10 9 0 10 -39 3 -57
-11 -7 -5 -14 -5 -18 2 -9 15 -41 12 -59 -5 -19 -20 -40 -19 -32 1 3 9 6 20 6
24 0 9 156 19 173 12 4 -2 7 -10 7 -18z m-900 1 c0 -11 -29 -11 -33 -1 -4 10
1 12 14 9 10 -3 19 -7 19 -8z m-203 -27 c-3 -7 -5 -2 -5 12 0 14 2 19 5 13 2
-7 2 -19 0 -25z m281 19 c8 -10 6 -13 -9 -14 -11 -1 -17 2 -14 8 4 5 -1 9 -10
9 -9 0 -13 -4 -10 -10 3 -6 -1 -7 -9 -4 -25 10 -19 20 13 22 16 1 33 -4 39
-11z m1003 -10 c-10 -9 -11 -8 -5 6 3 10 9 15 12 12 3 -3 0 -11 -7 -18z m66 8
c0 -9 -9 -15 -21 -15 -21 1 -21 1 -2 15 24 18 23 18 23 0z m-1030 -10 c0 -8
-4 -15 -9 -15 -4 0 -8 7 -8 15 0 8 4 15 8 15 5 0 9 -7 9 -15z m49 -3 c-10 -2
-22 0 -28 6 -6 6 0 7 19 4 21 -5 23 -7 9 -10z m144 -28 c22 -9 40 -20 40 -24
0 -5 -12 -2 -27 5 -16 7 -52 16 -80 20 -29 4 -53 11 -53 16 0 12 72 2 120 -17z
m1120 22 c0 -3 -4 -8 -10 -11 -5 -3 -10 -1 -10 4 0 6 5 11 10 11 6 0 10 -2 10
-4z m-190 -46 c0 -5 -5 -10 -11 -10 -5 0 -7 5 -4 10 3 6 8 10 11 10 2 0 4 -4
4 -10z m-1103 -14 c25 -4 24 -14 -2 -12 -14 2 -32 9 -38 16 -10 10 -8 11 8 6
11 -5 25 -9 32 -10z m83 -6 c0 -5 -4 -10 -10 -10 -5 0 -10 5 -10 10 0 6 5 10
10 10 6 0 10 -4 10 -10z m660 0 c0 -6 -32 -10 -75 -10 l-74 0 -9 -32 c-10 -39
-28 -39 -25 -1 4 51 7 53 98 53 50 0 85 -4 85 -10z m-580 -5 c0 -7 -30 -13
-34 -7 -3 4 4 9 15 9 10 1 19 0 19 -2z m40 -27 c0 -6 -6 -5 -15 2 -8 7 -15 14
-15 16 0 2 7 1 15 -2 8 -4 15 -11 15 -16z m-352 -30 c15 -15 15 -28 1 -28 -5
0 -8 4 -4 9 3 6 -3 14 -12 20 -10 6 -13 11 -7 11 5 0 15 -5 22 -12z m412 2 c0
-5 -2 -10 -4 -10 -3 0 -8 5 -11 10 -3 6 -1 10 4 10 6 0 11 -4 11 -10z m-370
-4 c0 -3 -4 -8 -10 -11 -5 -3 -10 -1 -10 4 0 6 5 11 10 11 6 0 10 -2 10 -4z
m1248 -5 c10 -6 7 -10 -12 -13 -25 -5 -33 1 -19 15 8 9 15 9 31 -2z m-48 -15
c0 -3 -4 -8 -10 -11 -5 -3 -10 -1 -10 4 0 6 5 11 10 11 6 0 10 -2 10 -4z
m-1075 -16 c3 -6 -1 -7 -9 -4 -18 7 -21 14 -7 14 6 0 13 -4 16 -10z m425 -4
c0 -3 -4 -8 -10 -11 -5 -3 -10 -1 -10 4 0 6 5 11 10 11 6 0 10 -2 10 -4z
m-430 -42 c0 -2 -7 -4 -15 -4 -8 0 -15 4 -15 10 0 5 7 7 15 4 8 -4 15 -8 15
-10z m1141 -4 c-24 -21 -41 -26 -41 -12 0 5 12 13 28 19 39 15 40 15 13 -7z
m-1416 -28 c-3 -3 -11 0 -18 7 -9 10 -8 11 6 5 10 -3 15 -9 12 -12z m200 -22
c3 -5 -1 -10 -10 -10 -9 0 -13 5 -10 10 3 6 8 10 10 10 2 0 7 -4 10 -10z
m1098 -105 c-3 -9 -8 -14 -10 -11 -3 3 -2 9 2 15 9 16 15 13 8 -4z m80 8 c-7
-2 -19 -2 -25 0 -7 3 -2 5 12 5 14 0 19 -2 13 -5z m-1202 -51 c-7 -2 -18 1
-23 6 -8 8 -4 9 13 5 13 -4 18 -8 10 -11z m162 -19 c-7 -2 -21 -2 -30 0 -10 3
-4 5 12 5 17 0 24 -2 18 -5z m670 -105 c-2 -5 -13 -8 -24 -8 -10 0 -19 3 -19
8 0 4 11 7 24 7 13 0 22 -3 19 -7z m-129 -65 c-10 -58 -21 -73 -54 -73 -27 0
-30 3 -30 30 0 25 -4 30 -25 30 -18 0 -26 -7 -31 -25 -10 -41 -27 -30 -19 13
10 56 19 62 97 62 l69 0 -7 -37z m92 22 c-8 -8 -18 -15 -22 -15 -3 0 -1 7 6
15 7 8 17 15 22 15 5 0 3 -7 -6 -15z"/>
<path d="M1215 3394 c-8 -6 -15 -15 -15 -19 0 -5 8 -2 18 6 9 8 36 14 59 14
23 0 39 3 36 7 -6 12 -79 5 -98 -8z"/>
<path d="M1196 3323 c-4 -9 -3 -20 2 -25 4 -4 9 4 10 17 2 29 -3 32 -12 8z"/>
<path d="M1270 3318 c0 -10 7 -18 15 -18 8 0 15 -5 15 -11 0 -5 4 -8 10 -4 5
3 7 12 4 20 -4 8 -11 12 -16 9 -6 -4 -14 0 -19 7 -7 11 -9 10 -9 -3z"/>
<path d="M1161 3264 c0 -11 3 -14 6 -6 3 7 2 16 -1 19 -3 4 -6 -2 -5 -13z"/>
<path d="M1196 3264 c-9 -24 -2 -26 12 -4 7 11 8 20 3 20 -5 0 -12 -7 -15 -16z"/>
<path d="M2657 3274 c-3 -5 1 -15 9 -22 16 -14 18 -5 5 17 -5 7 -11 9 -14 5z"/>
<path d="M1280 3245 c0 -8 2 -15 4 -15 2 0 6 7 10 15 3 8 1 15 -4 15 -6 0 -10
-7 -10 -15z"/>
<path d="M2633 3226 c5 -16 27 -19 27 -3 0 7 -7 14 -15 14 -9 0 -14 -5 -12
-11z"/>
<path d="M1225 3220 c-19 -8 -19 -9 3 -9 12 -1 22 4 22 9 0 6 -1 10 -2 9 -2 0
-12 -4 -23 -9z"/>
<path d="M1420 2049 c0 -5 5 -7 10 -4 6 3 10 8 10 11 0 2 -4 4 -10 4 -5 0 -10
-5 -10 -11z"/>
<path d="M1043 2038 c-25 -12 -31 -24 -44 -92 -16 -87 25 -162 83 -149 44 10
60 169 22 219 -24 33 -32 36 -61 22z"/>
<path d="M1305 1840 c-3 -5 3 -10 14 -10 11 0 23 5 26 10 3 6 -3 10 -14 10
-11 0 -23 -4 -26 -10z"/>
<path d="M1220 1539 c-117 -8 -188 -59 -177 -126 9 -54 139 -191 170 -180 7 3
0 9 -14 15 -38 15 -112 93 -134 141 -18 41 -18 42 2 69 34 46 78 65 165 70
132 8 197 -29 199 -113 1 -34 2 -37 8 -15 11 35 2 87 -17 102 -31 26 -124 43
-202 37z"/>
<path d="M1373 1468 c-23 -30 -24 -41 -2 -21 12 12 20 25 17 28 -3 3 -10 0
-15 -7z"/>
<path d="M1336 1405 c-3 -8 -1 -15 4 -15 13 0 22 18 11 24 -5 3 -11 -1 -15 -9z"/>
<path d="M1389 1253 l-24 -27 33 23 c32 23 39 31 24 31 -5 0 -19 -12 -33 -27z"/>
<path d="M3799 1253 c-13 -16 -12 -17 4 -4 9 7 17 15 17 17 0 8 -8 3 -21 -13z"/>
<path d="M1758 1253 c7 -3 16 -2 19 1 4 3 -2 6 -13 5 -11 0 -14 -3 -6 -6z"/>
<path d="M1335 1221 c-3 -5 -1 -12 5 -16 5 -3 10 1 10 9 0 18 -6 21 -15 7z"/>
<path d="M1984 1215 c21 -16 32 -13 21 4 -3 6 -14 11 -23 11 -15 -1 -15 -2 2
-15z"/>
<path d="M2035 1210 c-3 -5 1 -10 10 -10 9 0 13 5 10 10 -3 6 -8 10 -10 10 -2
0 -7 -4 -10 -10z"/>
<path d="M3403 854 c-3 -8 -1 -20 4 -25 12 -12 48 14 39 29 -10 17 -36 15 -43
-4z"/>
</g>
</svg>
